<svg width="162" height="42" viewBox="0 0 162 42" fill="none" xmlns="http://www.w3.org/2000/svg">
<path fill-rule="evenodd" clip-rule="evenodd" d="M51.2275 35.2384V15.0728H47.333V12.7395H58.2206V15.0728H54.4399V35.2384H51.2275ZM64.1337 32.8776C63.9443 33.5068 63.5791 34.0952 63.0394 34.6412C61.4696 36.2291 58.8587 35.3642 57.9364 33.5301C56.9288 31.528 57.7187 28.8289 59.4291 27.4747C60.7038 26.4666 62.266 25.8701 63.7747 25.2939C63.8471 25.2663 63.9193 25.2387 63.9913 25.2112V24.0722C63.9913 22.8345 63.9716 21.1835 62.3425 21.1835C60.6083 21.1835 60.6085 22.9435 60.6086 24.2392V24.2666L57.5956 24.1554C57.6332 22.3779 58.0502 21.0677 58.846 20.225C59.6424 19.3827 60.8742 18.9614 62.542 18.9614C64.1718 18.9614 65.3279 19.3967 66.01 20.2668C66.6921 21.137 67.0334 22.3965 67.0334 24.0442C67.0334 24.9239 67.0209 25.8062 67.0084 26.6895C66.9795 28.7355 66.9505 30.7867 67.0762 32.8218C67.1175 33.5037 67.188 34.11 67.2523 34.6629C67.2754 34.8612 67.2977 35.0527 67.3175 35.2384H64.5316C64.5073 35.1115 64.4827 34.9847 64.458 34.8578C64.3302 34.2011 64.2022 33.5432 64.1337 32.8776ZM60.5519 30.8219C60.5519 31.756 60.8792 32.905 62.0018 32.905C62.783 32.905 63.6046 32.2328 63.9913 31.5721V27.0166C63.0439 27.5348 62.1863 28.04 61.561 28.6137C60.9352 29.1879 60.5519 29.897 60.5519 30.8219ZM70.2457 35.2384V12.7395H73.2872V35.2384H70.2457ZM84.6013 34.0719C83.9002 34.9979 82.7064 35.4607 81.0195 35.4607C78.9514 35.4607 77.1764 34.6572 76.5705 32.5581C76.2959 31.6042 76.1583 30.4331 76.1583 29.0444V25.3776C76.1583 23.9517 76.3007 22.7667 76.5848 21.8221C76.869 20.878 77.3669 20.165 78.0775 19.6836C78.7882 19.2023 79.7686 18.9614 81.0195 18.9614C82.4032 18.9614 83.4218 19.239 84.0758 19.7948C84.7293 20.3501 85.1606 21.151 85.369 22.1974C85.684 23.7773 85.6829 25.3872 85.6819 26.9911C85.6818 27.0829 85.6818 27.1746 85.6818 27.2663H79.2004V30.4884C79.2004 32.4343 79.7412 33.2664 81.0481 33.2664C82.7543 33.2664 82.7239 31.4225 82.7016 30.0735C82.6992 29.9274 82.6969 29.7871 82.6969 29.6555H85.6532C85.6532 31.1927 85.5678 32.7964 84.6013 34.0719ZM79.2004 25.6553H82.6969C82.6969 25.4473 82.6992 25.2385 82.7015 25.0292C82.7108 24.1942 82.7201 23.3519 82.5831 22.5304C82.4345 21.6396 81.9018 21.1556 80.991 21.1556C80.0271 21.1556 79.5085 21.6869 79.3422 22.6141C79.1896 23.4686 79.1942 24.3436 79.1988 25.2116C79.1996 25.3597 79.2004 25.5077 79.2004 25.6553ZM88.4391 35.2384V19.1837H91.4811V20.7668C92.5935 19.7542 93.949 18.9614 95.4893 18.9614C97.3057 18.9614 97.9625 20.69 97.9625 22.2388V35.2384H94.9205V23.1001C94.9205 22.1668 94.6975 21.2947 93.613 21.2947C92.8184 21.2947 92.0729 21.8125 91.4811 22.2946V35.2384H88.4391ZM107.4 35.2942C106.702 35.3961 106.003 35.4607 105.297 35.4607C103.59 35.4607 102.572 34.8026 102.099 33.6552C101.862 33.0813 101.743 32.405 101.743 31.6274V21.1556H100.009V19.1837H101.743V14.4891H104.785V19.1837H107.429V21.1556H104.785V31.433C104.785 32.0628 104.889 32.5116 105.097 32.7804C105.522 33.3273 106.428 33.2163 107.105 33.1333C107.21 33.1205 107.309 33.1084 107.4 33.0994V35.2942ZM111.693 35.2384V15.0728H107.798V12.7395H118.686V15.0728H114.905V35.2384H111.693ZM119.112 35.2384V19.1837H122.154V21.4612C122.761 20.4799 123.367 19.8222 123.973 19.4892C124.661 19.1109 125.489 18.8914 126.276 19.0167V22.2946C125.35 21.918 124.21 21.7849 123.306 22.2807C122.917 22.4937 122.533 22.9057 122.154 23.5169V35.2384H119.112ZM133.696 32.8776C133.237 34.3964 131.973 35.4607 130.37 35.4607C129.099 35.4607 128.054 34.6352 127.498 33.5301C126.845 32.2314 126.943 30.4962 127.584 29.2109C128.295 27.7837 129.646 26.874 131.066 26.239C131.853 25.8869 132.682 25.5446 133.553 25.2112C133.553 24.9889 133.566 24.7414 133.58 24.481C133.634 23.4257 133.699 22.159 132.971 21.503C132.461 21.0445 131.437 21.0701 130.896 21.4612C130.139 22.0089 130.155 23.0746 130.168 23.9495C130.169 24.0586 130.171 24.1647 130.171 24.2666L127.157 24.1554C127.195 22.3779 127.612 21.0677 128.408 20.225C129.204 19.3827 130.436 18.9614 132.104 18.9614C133.733 18.9614 134.889 19.3967 135.572 20.2668C136.254 21.137 136.595 22.3965 136.595 24.0442V31.3777C136.595 32.3782 136.656 33.3176 136.752 34.1133C136.799 34.5114 136.841 34.8868 136.88 35.2384H134.094C134.069 35.1072 134.043 34.9761 134.017 34.8449C133.89 34.1925 133.763 33.5388 133.696 32.8776ZM130.483 32.3497C130.914 32.9955 131.796 33.0449 132.416 32.6553C132.843 32.3876 133.295 32.0137 133.553 31.5721V27.0166C133.08 27.2756 132.634 27.5352 132.217 27.7942C131.383 28.3133 130.744 28.8639 130.384 29.5857C129.984 30.3884 129.979 31.5923 130.483 32.3497ZM144.015 35.4607C142.669 35.4607 141.65 35.197 140.959 34.6691C140.267 34.1412 139.803 33.3962 139.566 32.433C139.329 31.4703 139.21 30.3499 139.21 29.0718C139.21 28.5674 139.2 28.0566 139.19 27.5426C139.151 25.6569 139.112 23.7287 139.58 21.9198C139.827 20.9659 140.296 20.2343 140.987 19.725C141.679 19.2157 142.688 18.9614 144.015 18.9614C145.209 18.9614 146.133 19.1511 146.787 19.5306C148.524 20.5408 148.515 22.8126 148.507 24.6206C148.507 24.7361 148.506 24.8497 148.506 24.9609H145.749C145.749 24.8204 145.752 24.6694 145.755 24.5116C145.78 23.106 145.814 21.1556 144.043 21.1556C142.229 21.1556 142.242 23.0486 142.251 24.4742C142.252 24.5742 142.252 24.6719 142.252 24.7665V29.822L142.252 29.8964C142.252 31.283 142.251 33.2664 144.072 33.2664C145.859 33.2664 145.801 31.2162 145.76 29.7553C145.754 29.5505 145.749 29.3573 145.749 29.1829H148.506C148.506 29.2947 148.507 29.4087 148.507 29.5244C148.514 31.4052 148.523 33.7502 146.758 34.8495C146.104 35.257 145.19 35.4607 144.015 35.4607ZM151.264 35.2104V12.7115H154.306V26.1278L158.74 19.1837H161.924L158.058 25.4609L161.81 35.2384H158.768L155.698 27.0166L154.306 29.0718V35.2104H151.264Z" fill="#D51F36"/>
<path fill-rule="evenodd" clip-rule="evenodd" d="M23.192 0L18.9095 8.39233e-05L18.8716 9.08414L23.1702 9.07587L23.192 0ZM9.32043 18.2318L0.0255699 18.207L0 22.6906L7.06435 22.6834C5.91022 26.8072 6.31521 30.8415 8.40869 34.6365C10.9634 39.268 16.2764 42.1835 21.507 41.9912C31.4697 41.5491 37.5834 32.0679 34.9346 22.6622L42 22.6627L41.9831 18.2349L32.6939 18.2018C30.044 14.3102 25.1939 12.0373 20.5554 12.1754C16.4622 12.3534 11.6004 14.4617 9.32043 18.2318ZM12.5261 21.4679C14.4825 18.4159 17.4596 16.8457 20.9813 16.7428C24.8057 16.6306 28.554 19.148 30.1489 22.6198C32.0566 26.7732 31.0499 33.6147 26.5791 35.7135C25.0126 34.1057 23.4146 32.9266 21.0534 32.8522C18.8684 32.8957 16.6512 33.924 15.3488 35.73C10.8427 32.3828 9.41299 26.3253 12.5261 21.4679Z" fill="#D51F36"/>
<path d="M37.4501 7.81432L33.7758 4.82341L28.3773 11.6842L32.1697 14.6988L37.4501 7.81432Z" fill="#D51F36"/>
<path d="M4.04 7.81432L7.71431 4.82341L13.1129 11.6842L9.32043 14.6988L4.04 7.81432Z" fill="#D51F36"/>
</svg>
