<?xml version="1.0" standalone="no"?>
<!DOCTYPE svg PUBLIC "-//W3C//DTD SVG 20010904//EN"
 "http://www.w3.org/TR/2001/REC-SVG-20010904/DTD/svg10.dtd">
<svg version="1.0" xmlns="http://www.w3.org/2000/svg"
 width="1078.000000pt" height="1080.000000pt" viewBox="0 0 1078.000000 1080.000000"
 preserveAspectRatio="xMidYMid meet">

<g transform="translate(0.000000,1080.000000) scale(0.100000,-0.100000)"
fill="#000000" stroke="none">
<path d="M4945 9754 c-11 -8 -73 -45 -137 -82 -120 -67 -129 -76 -143 -148 -7
-37 -22 -51 -90 -89 -261 -144 -258 -142 -281 -187 -8 -15 -14 -48 -14 -73 0
-59 -21 -90 -87 -127 -92 -52 -87 -20 -89 -525 -1 -317 -5 -447 -13 -457 -12
-14 -109 -64 -213 -109 -101 -45 -93 35 -93 -897 0 -457 -4 -823 -9 -833 -10
-20 -95 -62 -251 -122 -55 -21 -110 -48 -123 -60 l-22 -21 0 -564 c0 -681 13
-617 -143 -685 -31 -14 -82 -36 -112 -50 -31 -14 -58 -25 -61 -25 -3 0 -24 -9
-47 -19 -23 -10 -94 -40 -157 -66 -152 -62 -178 -79 -185 -118 -4 -18 -7 -791
-8 -1719 -2 -1368 -4 -1689 -15 -1700 -10 -10 -64 -14 -205 -16 -118 -2 -201
-7 -214 -14 -29 -15 -29 -42 -1 -62 20 -14 338 -16 3179 -16 2735 0 3158 2
3168 14 7 8 11 27 9 43 l-3 28 -240 6 c-133 3 -246 9 -253 13 -9 6 -12 429
-12 1920 l0 1913 -21 27 c-12 15 -78 56 -148 91 -262 134 -466 244 -498 269
l-33 27 0 757 c0 717 -1 759 -18 787 -11 18 -53 50 -103 79 -127 74 -199 117
-249 147 -25 14 -76 43 -113 63 -105 57 -329 186 -359 207 -14 11 -28 19 -31
19 -2 0 -56 30 -118 67 -63 36 -139 80 -169 98 -30 18 -127 74 -215 125 -270
157 -347 199 -361 193 -12 -4 -14 -544 -14 -3380 0 -2307 -3 -3380 -10 -3394
-9 -17 -22 -19 -103 -19 -59 0 -97 4 -105 12 -19 19 -17 7127 2 7134 7 3 83
-36 167 -87 85 -50 168 -99 184 -109 101 -57 244 -142 415 -245 107 -65 269
-162 360 -215 91 -54 219 -130 285 -170 66 -41 144 -89 174 -107 95 -57 91
-64 91 176 0 243 2 237 -105 291 -126 64 -173 148 -161 284 4 40 2 84 -3 97
-12 31 -99 94 -404 290 -70 45 -140 97 -157 115 -35 41 -51 93 -44 148 9 63
-7 88 -88 142 -40 26 -75 50 -78 54 -3 3 -37 26 -76 53 -98 65 -105 75 -113
153 -7 61 -10 69 -47 101 -43 38 -401 293 -411 293 -4 0 -16 8 -27 19 -40 35
-386 271 -399 271 -6 0 -21 -8 -32 -16z m97 -97 c43 -25 290 -193 483 -327 72
-49 153 -105 180 -124 65 -43 115 -95 115 -118 0 -40 -3 -39 -343 195 -97 67
-246 169 -330 227 -122 83 -159 104 -187 104 -35 0 -102 -27 -170 -69 -40 -25
-60 -22 -60 6 0 13 10 24 31 31 17 6 69 30 117 53 48 24 96 44 107 44 11 0 37
-9 57 -22z m49 -217 c74 -50 204 -138 289 -196 85 -58 283 -192 439 -297 156
-106 293 -204 303 -218 11 -14 20 -41 21 -60 2 -29 -1 -34 -19 -33 -22 0 -223
128 -469 299 -82 57 -201 138 -262 180 -62 42 -179 124 -260 182 -81 57 -159
111 -174 119 -50 25 -66 21 -224 -66 -33 -18 -115 -62 -183 -97 -68 -35 -134
-71 -148 -79 -48 -32 -75 13 -31 53 12 12 54 38 92 59 152 82 471 243 481 243
6 1 71 -40 145 -89z m-102 -160 c70 -45 82 -65 55 -85 -23 -17 -204 -116 -294
-161 -142 -70 -167 -120 -148 -293 10 -88 9 -105 -6 -146 -20 -52 -37 -65
-126 -100 -131 -52 -162 -97 -164 -244 -1 -78 -4 -96 -16 -96 -23 0 -28 761
-5 805 13 26 51 52 170 120 261 148 436 240 456 240 9 0 44 -18 78 -40z m232
-198 c52 -17 106 -49 214 -126 80 -57 738 -500 754 -508 3 -2 40 -25 81 -52
41 -27 107 -69 145 -94 207 -132 238 -157 261 -211 15 -35 18 -79 8 -105 -8
-22 -44 -20 -74 4 -14 11 -29 20 -33 20 -4 0 -20 8 -35 19 -15 10 -121 78
-237 151 -115 73 -222 141 -237 151 -15 10 -66 43 -115 72 -48 30 -208 131
-355 225 -147 95 -284 182 -305 193 -61 35 -104 29 -218 -29 -151 -77 -274
-132 -296 -132 -18 0 -19 8 -19 110 l0 109 38 39 c72 75 270 181 338 182 17 0
55 -8 85 -18z m-105 -447 c3 -13 4 -98 3 -188 -4 -186 -9 -199 -80 -234 -105
-51 -199 -93 -208 -93 -5 0 -21 -14 -35 -31 l-26 -31 0 -3474 c0 -2377 -3
-3481 -10 -3495 -9 -16 -22 -19 -74 -19 -41 0 -68 5 -75 13 -8 10 -11 984 -11
3662 0 3298 1 3651 16 3672 8 13 49 40 89 58 41 19 143 69 227 110 83 41 158
75 165 75 7 0 15 -11 19 -25z m-832 -651 c3 -9 6 -358 6 -777 0 -585 -3 -768
-13 -786 -16 -33 -243 -127 -264 -110 -11 9 -13 151 -13 783 l0 773 23 20 c12
11 47 31 76 44 30 13 75 34 100 46 56 26 77 28 85 7z m1733 -510 c19 -10 42
-28 51 -43 16 -23 17 -246 17 -3183 0 -2797 -2 -3160 -15 -3168 -8 -5 -36 -10
-62 -10 -37 0 -50 4 -58 19 -11 22 -15 6383 -3 6394 11 11 33 8 70 -9z m518
-284 c20 -13 38 -36 49 -63 15 -40 16 -279 14 -3040 -3 -2652 -5 -2999 -18
-3007 -17 -11 -90 -13 -114 -4 -15 6 -16 285 -16 3070 l0 3064 26 0 c15 0 41
-9 59 -20z m500 -302 l25 -30 0 -2882 c0 -2228 -3 -2885 -12 -2894 -17 -17
-103 -15 -117 2 -19 22 -20 5854 -1 5866 16 10 72 -22 105 -62z m-2971 -749
c7 -20 4 -36 -10 -65 -16 -33 -30 -44 -93 -71 -123 -52 -115 -29 -122 -351 -3
-152 -5 -1225 -4 -2383 1 -1159 -1 -2126 -4 -2150 l-6 -44 -60 0 -60 0 -3
2469 c-2 2206 0 2471 13 2486 16 18 37 28 160 75 39 15 88 36 110 46 50 23 67
20 79 -12z m171 -169 c4 -6 6 -1107 6 -2447 -1 -1924 -4 -2439 -14 -2445 -20
-13 -105 -9 -114 4 -4 7 -6 1099 -6 2426 2 1955 5 2417 15 2430 27 31 100 52
113 32z"/>
</g>
</svg>
